# AST/ASF file generated using VICON BodyLanguage
# -----------------------------------------------
:version 1.10
:name VICON
:units
  mass 1.0
  length 0.45
  angle deg
:documentation
   .ast/.asf automatically generated from VICON data using
   VICON BodyBuilder and BodyLanguage model FoxedUp or BRILLIANT.MOD
:root
   order TX TY TZ RX RY RZ
   axis XYZ
   position 0 0 0  
   orientation 0 0 0 
:bonedata
  begin
     id 1 
     name lhipjoint
     direction 0.63403 -0.759788 0.143974 
     length 2.51904 
     axis 0 0 0  XYZ
  end
  begin
     id 2 
     name lfemur
     direction 0.34202 -0.939693 0  
     length 7.42313  
     axis 0 0 20  XYZ
    dof rx ry rz
    limits (-160.0 20.0)
           (-70.0 70.0)
           (-60.0 70.0)
  end
  begin
     id 3 
     name ltibia
     direction 0.34202 -0.939693 0   
     length 8.10141   
     axis 0 0 20   XYZ
    dof rx
    limits (-10.0 170.0)
  end
  begin
     id 4 
     name lfoot
     direction 0.0927455 -0.254816 0.962532   
     length 2.14078   
     axis -90 7.62852e-016 20   XYZ
    dof rx rz
    limits (-45.0 90.0)
           (-70.0 20.0)
  end
  begin
     id 5 
     name ltoes
     direction 1.53556e-011 -4.21949e-011 1   
     length 1.07182   
     axis -90 7.62852e-016 20   XYZ
    dof rx
    limits (-90.0 20.0)
  end
  begin
     id 6 
     name rhipjoint
     direction -0.659892 -0.738223 0.139888   
     length 2.59263  
     axis 0 0 0  XYZ 
  end
  begin
     id 7 
     name rfemur
     direction -0.34202 -0.939693 0   
     length 7.58575   
     axis 0 0 -20   XYZ
    dof rx ry rz
    limits (-160.0 20.0)
           (-70.0 70.0)
           (-70.0 60.0)
  end
  begin
     id 8 
     name rtibia
     direction -0.34202 -0.939693 0   
     length 8.19358   
     axis 0 0 -20   XYZ
    dof rx
    limits (-10.0 170.0)
 end
 begin
     id 9 
     name rfoot
     direction -0.0856543 -0.235333 0.968133   
     length 2.13415  
     axis -90 -7.62852e-016 -20   XYZ
    dof rx rz
    limits (-45.0 90.0)
           (-20.0 70.0)
  end
  begin
     id 10 
     name rtoes
     direction -1.53551e-011 -4.21811e-011 1   
     length 1.07055   
     axis -90 -7.62852e-016 -20   XYZ
    dof rx
    limits (-90.0 20.0)
  end
  begin
     id 11 
     name lowerback
     direction 0.025219 0.998394 -0.0507326   
     length 1.91844   
     axis 0 0 0   XYZ
    dof rx ry rz
    limits (-20.0 45.0)
           (-30.0 30.0)
           (-30.0 30.0)
  end
  begin
     id 12 
     name upperback
     direction 0.0213103 0.99967 -0.0143101   
     length 1.92246   
     axis 0 0 0   XYZ
    dof rx ry rz
    limits (-20.0 45.0)
           (-30.0 30.0)
           (-30.0 30.0)
  end
  begin
     id 13 
     name thorax
     direction 0.00920974 0.99991 0.00971518   
     length 1.92239   
     axis 0 0 0   XYZ
    dof rx ry rz
    limits (-20.0 45.0)
           (-30.0 30.0)
           (-30.0 30.0)
  end
  begin
     id 14 
     name lowerneck
     direction 0.0598257 0.997249 0.0437612   
     length 3.13679   
     axis 0 0 0   XYZ
    dof rx ry rz
    limits (-20.0 45.0)
           (-30.0 30.0)
           (-30.0 30.0)
  end
  begin
     id 15 
     name upperneck
     direction -0.035342 0.999338 0.00863891   
     length 3.16283   
     axis 0 0 0   XYZ
    dof rx ry rz
    limits (-20.0 45.0)
           (-30.0 30.0)
           (-30.0 30.0)
  end
  begin
     id 16
     name head
     direction 0.37144 0.811566 0.450991  
     length 1.2838  
     axis 0 0 0   XYZ
    dof rx ry rz
    limits (-20.0 45.0)
           (-30.0 30.0)
           (-30.0 30.0)
  end
  begin
     id 17 
     name lclavicle
     direction 0.961094 0.274654 -0.0293862  
     length 3.63466  
     axis 0 0 0   XYZ
    dof ry rz
    limits (-20.0 10.0)
           (0.0 20.0)
  end
  begin
     id 18 
     name lhumerus
     direction 1 -4.48963e-011 1.10303e-027   
     length 5.12842   
     axis 180 -30 -90   XYZ
    dof rx ry rz
    limits (-60.0 90.0)
           (-90.0 90.0)
           (-90.0 90.0)
  end
  begin
     id 19
     name lradius
     direction 1 -4.48968e-011 4.13199e-027   
     length 3.47396   
     axis 180 -30 -90   XYZ
    dof rx
    limits (-10.0 170.0)
  end
  begin
     id 20
     name lwrist
     direction 1 -4.48948e-011 9.12708e-027   
     length 1.73698   
     axis -6.84618e-015 90 90   XYZ
    dof ry
    limits (-180.0 0.0)
 end
  begin
     id 21 
     name lhand
     direction 1 -4.49057e-011 1.82749e-026   
     length 0.728607   
     axis -1.16502e-014 90 90   XYZ
    dof rx rz
    limits (-90.0 90.0)
           (-45.0 45.0)
  end
  begin
     id 22 
     name lfingers
     direction 1 -4.48912e-011 3.64949e-026   
     length 0.587422   
     axis -2.33008e-014 90 90   XYZ
    dof rx
    limits (0.0 90.0)
  end
  begin
     id 23
     name lthumb
     direction 0.707107 -6.34995e-011 0.707107   
     length 0.843424   
     axis -90 45 5.69224e-014   XYZ
    dof rx rz
    limits (-45.0 45.0)
           (-45.0 45.0)
  end
  begin
     id 24 
     name rclavicle
     direction -0.90514 0.421881 -0.0523369   
     length 3.57139  
     axis 0 0 0   XYZ 
    dof ry rz
    limits (-10.0 20.0)
           (-20.0 0.0)
  end
  begin
     id 25 
     name rhumerus
     direction -1 -4.48954e-011 -1.76662e-027  
     length 5.48477   
     axis 180 30 90   XYZ
    dof rx ry rz
    limits (-90.0 60.0)
           (-90.0 90.0)
           (-90.0 90.0)
  end
  begin
     id 26 
     name rradius
     direction -1 -4.48982e-011 1.26841e-027   
     length 3.47856   
     axis 180 30 90   XYZ
    dof rx
    limits (-10.0 170.0)
  end
  begin
     id 27 
     name rwrist
     direction -1 -4.49037e-011 9.13554e-027   
     length 1.73928   
     axis -6.84618e-015 -90 -90   XYZ
    dof ry
    limits (-180.0 0.0)
  end
  begin
     id 28
     name rhand
     direction -1 -4.48871e-011 1.82397e-026   
     length 0.709974   
     axis -1.16502e-014 -90 -90   XYZ
    dof rx rz
    limits (-90.0 90.0)
           (-45.0 45.0)
  end
  begin
     id 29
     name rfingers
     direction -1 -4.48994e-011 3.65258e-026   
     length 0.572399   
     axis -2.33008e-014 -90 -90   XYZ
    dof rx
    limits (0.0 90.0)
  end
  begin
     id 30
     name rthumb
     direction -0.707107 -6.34861e-011 0.707107   
     length 0.821855   
     axis -90 -45 -5.69224e-014   XYZ
    dof rx rz
    limits (-45.0 45.0)
           (-45.0 45.0)
  end
:hierarchy
  begin
    root lhipjoint rhipjoint lowerback
    lhipjoint lfemur
    lfemur ltibia
    ltibia lfoot
    lfoot ltoes
    rhipjoint rfemur
    rfemur rtibia
    rtibia rfoot
    rfoot rtoes
    lowerback upperback
    upperback thorax
    thorax lowerneck lclavicle rclavicle
    lowerneck upperneck
    upperneck head
    lclavicle lhumerus
    lhumerus lradius
    lradius lwrist
    lwrist lhand lthumb
    lhand lfingers
    rclavicle rhumerus
    rhumerus rradius
    rradius rwrist
    rwrist rhand rthumb
    rhand rfingers
  end

#!OML:ASF F:\VICON\USERDATA\INSTALL\Justin1\Justin1.ASF
:FULLY-SPECIFIED
:DEGREES
123
root -0.142298 18.2794 -3.22398 7.10268 0.744636 -2.12224
lowerback 0.578024 -1.90406 2.13478
upperback -2.62889 -2.42706 2.69517
thorax -2.99794 -1.22831 1.65326
lowerneck -14.0996 -4.0031 -4.86836
upperneck 18.8929 -3.99219 -2.00351
head 8.26591 -2.44612 -0.316374
rclavicle 5.54112e-015 9.54166e-015
rhumerus -31.2938 -17.3883 -74.2633
rradius 24.5229
rwrist 1.75311
rhand -20.8795 17.4709
rfingers 7.12502
rthumb 5.49069 -12.438
lclavicle 5.54112e-015 9.54166e-015
lhumerus -35.9495 20.4088 76.2908
lradius 30.3514
lwrist -15.9902
lhand -7.66298 27.7828
lfingers 7.12502
lthumb 18.2331 56.9482
rfemur -16.2952 8.20588 26.6407
rtibia 31.4556
rfoot -18.0561 -17.6721
rtoes 27.4444
lfemur -13.2994 -9.56182 -19.0045
ltibia 26.8285
lfoot -17.1589 8.84702
ltoes 4.22081
124
root -0.141025 18.2786 -3.22438 7.08351 0.886834 -2.23046
lowerback 0.576684 -1.90253 2.26747
upperback -2.58475 -2.42239 2.73881
thorax -2.95557 -1.22834 1.62274
lowerneck -14.0878 -3.96407 -4.88329
upperneck 18.8318 -3.93083 -2.02897
head 8.24238 -2.41957 -0.314238
rclavicle -1.0635e-014 3.97569e-015
rhumerus -31.2161 -17.4452 -74.2425
rradius 24.5564
rwrist 1.8899
rhand -20.7312 17.5218
rfingers 7.12502
rthumb 5.63387 -12.3834
lclavicle -1.0635e-014 3.97569e-015
lhumerus -35.864 20.43 76.3956
lradius 30.4233
lwrist -15.9462
lhand -7.87547 27.7954
lfingers 7.12502
lthumb 18.0287 56.9798
rfemur -16.2674 8.1449 26.7757
rtibia 31.4463
rfoot -18.0854 -17.696
rtoes 27.7144
lfemur -13.3304 -9.58709 -18.865
ltibia 26.8782
lfoot -17.2314 8.73259
ltoes 4.37541
125
root -0.140594 18.2794 -3.2241 7.06529 0.974853 -2.3083
lowerback 0.595036 -1.89991 2.33303
upperback -2.58068 -2.41579 2.77714
thorax -2.96304 -1.22608 1.62605
lowerneck -14.0273 -3.93245 -4.85225
upperneck 18.7898 -3.88464 -2.09688
head 8.21474 -2.40152 -0.334635
rclavicle 9.86469e-015 1.51076e-014
rhumerus -31.2499 -17.3505 -74.2611
rradius 24.7176
rwrist 1.85616
rhand -20.7222 17.2733
rfingers 7.12502
rthumb 5.64257 -12.6316
lclavicle 9.86469e-015 1.51076e-014
lhumerus -35.8404 20.5074 76.4106
lradius 30.4052
lwrist -15.9619
lhand -8.01665 27.913
lfingers 7.12502
lthumb 17.8928 57.1099
rfemur -16.2239 8.14351 26.879
rtibia 31.4277
rfoot -18.1492 -17.7493
rtoes 27.8303
lfemur -13.3432 -9.57217 -18.7703
ltibia 26.9285
lfoot -17.348 8.63094
ltoes 4.34631
126
root -0.139424 18.2782 -3.22312 7.00133 1.00041 -2.3138
lowerback 0.644418 -1.89081 2.32414
upperback -2.5704 -2.40156 2.79838
thorax -2.97916 -1.21848 1.65406
lowerneck -13.9632 -3.90176 -4.77099
upperneck 18.7611 -3.83145 -2.26031
head 8.18795 -2.38645 -0.394263
rclavicle -2.64384e-014 6.36111e-015
rhumerus -31.3262 -17.2415 -74.2621
rradius 24.8824
rwrist 1.8794
rhand -20.784 17.2272
rfingers 7.12502
rthumb 5.58294 -12.6793
lclavicle -2.64384e-014 6.36111e-015
lhumerus -35.8443 20.5047 76.4715
lradius 30.4053
lwrist -15.76
lhand -8.30949 28.3625
lfingers 7.12502
lthumb 17.611 57.5849
rfemur -16.1365 8.16431 26.894
rtibia 31.416
rfoot -18.1974 -17.7827
rtoes 27.7647
lfemur -13.253 -9.59768 -18.772
ltibia 26.9197
lfoot -17.4136 8.56898
ltoes 4.59789
127
root -0.138815 18.2774 -3.22098 6.96516 1.01849 -2.35755
lowerback 0.627458 -1.87344 2.35403
upperback -2.55437 -2.37802 2.83463
thorax -2.95307 -1.20686 1.67282
lowerneck -13.9054 -3.85925 -4.78586
upperneck 18.7514 -3.76151 -2.31641
head 8.17302 -2.35971 -0.401199
rclavicle -4.71368e-014 1.11319e-014
rhumerus -31.3531 -17.2436 -74.2255
rradius 24.9766
rwrist 1.95368
rhand -20.7661 17.1923
rfingers 7.12502
rthumb 5.60016 -12.7137
lclavicle -4.71368e-014 1.11319e-014
lhumerus -35.8626 20.5286 76.5207
lradius 30.4102
lwrist -15.6262
lhand -8.48562 28.4655
lfingers 7.12502
lthumb 17.4415 57.703
rfemur -16.1001 8.12673 26.9429
rtibia 31.4203
rfoot -18.2076 -17.7732
rtoes 27.7954
lfemur -13.1855 -9.59922 -18.7328
ltibia 26.8926
lfoot -17.3973 8.58991
ltoes 4.6462
128
root -0.138305 18.2775 -3.21736 6.98139 1.03044 -2.28637
lowerback 0.577017 -1.85096 2.278
upperback -2.57418 -2.35155 2.8179
thorax -2.94282 -1.19211 1.69573
lowerneck -13.8412 -3.82223 -4.79377
upperneck 18.7739 -3.71159 -2.3197
head 8.16866 -2.33718 -0.394328
rclavicle -1.98785e-014 -8.74653e-015
rhumerus -31.3736 -17.2571 -74.2205
rradius 24.9956
rwrist 2.00698
rhand -20.8035 16.9976
rfingers 7.12502
rthumb 5.56411 -12.9094
lclavicle -1.98785e-014 -8.74653e-015
lhumerus -35.9 20.518 76.5392
lradius 30.4453
lwrist -15.5574
lhand -8.5293 28.4428
lfingers 7.12502
lthumb 17.3995 57.684
rfemur -16.1107 8.11796 26.8659
rtibia 31.434
rfoot -18.1755 -17.8231
rtoes 27.7606
lfemur -13.1709 -9.64603 -18.8057
ltibia 26.8576
lfoot -17.3802 8.60286
ltoes 4.98481
129
root -0.137874 18.2758 -3.21519 6.97511 1.05416 -2.28843
lowerback 0.559195 -1.82095 2.29164
upperback -2.58153 -2.31168 2.81508
thorax -2.9415 -1.17256 1.68349
lowerneck -13.8343 -3.81672 -4.81842
upperneck 18.8433 -3.69709 -2.32054
head 8.19121 -2.33332 -0.389865
rclavicle -3.45388e-015 -7.95139e-016
rhumerus -31.3605 -17.2774 -74.2217
rradius 24.9562
rwrist 2.05464
rhand -20.7795 16.9766
rfingers 7.12502
rthumb 5.58725 -12.9297
lclavicle -3.45388e-015 -7.95139e-016
lhumerus -35.9584 20.5304 76.5552
lradius 30.5951
lwrist -15.5734
lhand -8.23746 28.6521
lfingers 7.12502
lthumb 17.6803 57.8682
rfemur -16.092 8.09757 26.8753
rtibia 31.4308
rfoot -18.1148 -17.8818
rtoes 27.3942
lfemur -13.1571 -9.64026 -18.8046
ltibia 26.8493
lfoot -17.3649 8.60657
ltoes 4.645
130
root -0.13801 18.2747 -3.21298 6.96436 1.0882 -2.3281
lowerback 0.51099 -1.78335 2.33647
upperback -2.57126 -2.26251 2.82846
thorax -2.90555 -1.14876 1.66863
lowerneck -13.8815 -3.83067 -4.86137
upperneck 18.9698 -3.69924 -2.32721
head 8.24337 -2.3404 -0.388274
rclavicle -2.17918e-014 2.62396e-014
rhumerus -31.3199 -17.3815 -74.1608
rradius 24.8841
rwrist 2.12967
rhand -20.767 17.1617
rfingers 7.12502
rthumb 5.59935 -12.7443
lclavicle -2.17918e-014 2.62396e-014
lhumerus -36.0313 20.4913 76.5998
lradius 30.7779
lwrist -15.5779
lhand -8.05371 28.7862
lfingers 7.12502
lthumb 17.8572 57.9863
rfemur -16.0599 8.09199 26.9262
rtibia 31.4113
rfoot -18.1392 -17.9006
rtoes 27.4047
lfemur -13.1438 -9.64802 -18.7581
ltibia 26.8523
lfoot -17.3459 8.55369
ltoes 4.98397
131
root -0.137377 18.2746 -3.21216 6.96038 1.1141 -2.40791
lowerback 0.486858 -1.75223 2.44628
upperback -2.57559 -2.21916 2.83989
thorax -2.90084 -1.1295 1.61706
lowerneck -13.8865 -3.82485 -4.86533
upperneck 19.0672 -3.68274 -2.35129
head 8.27662 -2.33704 -0.39534
rclavicle 9.14409e-015 -3.33958e-014
rhumerus -31.2721 -17.4568 -74.1162
rradius 24.7616
rwrist 2.14969
rhand -20.6719 17.5516
rfingers 7.12502
rthumb 5.6911 -12.352
lclavicle 9.14409e-015 -3.33958e-014
lhumerus -36.0957 20.4361 76.6093
lradius 30.8171
lwrist -15.6021
lhand -8.01721 28.7898
lfingers 7.12502
lthumb 17.8923 57.9867
rfemur -16.0372 8.09913 27.0072
rtibia 31.3845
rfoot -18.2394 -17.816
rtoes 27.8052
lfemur -13.1569 -9.66555 -18.6675
ltibia 26.8656
lfoot -17.3673 8.54843
ltoes 4.96809
